<?xml version="1.0" standalone="no"?>
<!DOCTYPE svg PUBLIC "-//W3C//DTD SVG 20010904//EN"
 "http://www.w3.org/TR/2001/REC-SVG-20010904/DTD/svg10.dtd">
<svg version="1.0" xmlns="http://www.w3.org/2000/svg"
 width="118.000000pt" height="118.000000pt" viewBox="0 0 118.000000 118.000000"
 preserveAspectRatio="xMidYMid meet">
<metadata>
Created by potrace 1.11, written by Peter Selinger 2001-2013
</metadata>
<g transform="translate(0.000000,118.000000) scale(0.100000,-0.100000)"
fill="#000000" stroke="none">
<path d="M885 1150 c-9 -29 -99 -105 -153 -130 -26 -13 -71 -34 -99 -47 -107
-51 -152 -134 -144 -268 2 -30 2 -30 66 38 35 37 67 67 72 67 4 0 -23 -30 -59
-67 -46 -47 -76 -89 -96 -133 -33 -72 -48 -125 -33 -116 5 4 8 -7 6 -26 -2
-18 -4 -80 -5 -138 -1 -58 -5 -96 -7 -85 -3 11 -8 22 -12 25 -16 13 -44 52
-32 45 26 -15 6 99 -25 149 -23 36 -73 80 -94 81 -3 0 -11 4 -18 9 -7 4 -16 6
-19 2 -3 -3 -12 2 -20 10 -8 8 -19 12 -24 9 -4 -3 -23 2 -41 12 -18 9 -35 18
-38 18 -26 7 -59 27 -75 46 l-20 24 20 -15 c13 -8 11 -4 -5 12 -17 16 -26 21
-28 12 -7 -28 28 -189 52 -237 37 -77 117 -162 171 -183 46 -17 116 -14 141 7
16 13 57 -53 57 -93 0 -19 3 -24 9 -16 4 7 8 -25 8 -74 l0 -88 34 0 c24 0 36
5 40 18 3 9 17 29 31 44 l25 27 34 -20 c77 -45 172 -16 271 85 54 55 101 119
94 128 -2 2 4 14 11 28 8 14 13 28 12 33 -1 4 2 7 8 7 5 0 6 7 3 17 -4 11 -3
14 5 9 7 -4 10 -2 7 7 -3 7 1 40 10 72 19 76 20 112 0 70 -7 -16 -14 -26 -14
-21 -1 5 -9 0 -19 -12 -19 -22 -120 -72 -146 -72 -8 0 -18 -5 -21 -10 -4 -6
-10 -8 -14 -6 -4 3 -25 0 -47 -5 -21 -5 -47 -11 -56 -14 -22 -5 -70 -36 -88
-57 -50 -57 -60 -80 -75 -166 -6 -39 -12 -41 93 35 73 52 107 68 82 38 -7 -9
-15 -13 -18 -11 -8 9 -94 -55 -150 -111 l-54 -53 3 277 c3 252 8 311 28 299
19 -12 96 -15 132 -6 76 21 175 144 213 265 18 58 24 102 26 200 1 49 4 64 10
50 8 -19 9 -19 9 3 1 27 -25 30 -34 2z m-20 -157 c-6 -58 -10 -73 -16 -58 -7
15 -8 12 -4 -13 3 -22 1 -31 -6 -26 -6 3 -10 0 -8 -7 3 -24 -1 -37 -13 -51 -7
-7 -19 -25 -27 -40 -45 -88 -153 -152 -223 -132 l-31 9 39 46 c48 56 89 110
89 118 2 21 18 50 25 46 4 -3 10 2 14 10 9 26 -8 17 -43 -22 -18 -21 -30 -32
-26 -25 4 8 -19 -11 -51 -42 -33 -31 -63 -56 -69 -56 -5 0 -5 4 2 8 7 4 11 16
9 27 -2 11 2 31 7 45 26 60 50 80 160 135 62 31 126 68 143 83 16 16 31 27 33
25 2 -1 0 -37 -4 -80z m-215 -168 c-7 -9 -15 -13 -19 -10 -3 3 1 10 9 15 21
14 24 12 10 -5z m-554 -265 c3 0 2 4 -1 10 -3 6 1 7 9 4 9 -3 13 -11 9 -17 -4
-6 0 -8 10 -4 10 3 17 2 17 -3 0 -5 7 -6 17 -3 12 5 14 3 8 -7 -6 -10 -4 -12
10 -7 9 4 24 2 31 -4 8 -6 14 -9 14 -5 0 3 17 -1 38 -9 38 -16 82 -56 82 -75
0 -5 5 -10 11 -10 5 0 8 -4 4 -9 -3 -5 -1 -12 5 -16 5 -3 10 -14 10 -23 0 -11
-3 -13 -8 -6 -4 6 -17 14 -30 18 -12 4 -20 12 -17 17 3 5 -2 6 -11 2 -11 -4
-15 -3 -10 5 3 6 1 14 -5 18 -8 5 -10 2 -5 -7 6 -10 4 -10 -6 1 -18 21 -48 24
-48 5 0 -8 6 -14 13 -12 6 1 11 -3 10 -9 -1 -6 16 -28 38 -48 22 -21 37 -41
34 -45 -2 -5 1 -8 8 -7 28 3 16 -20 -15 -27 -38 -9 -114 12 -111 30 1 6 -5 10
-15 9 -9 0 -16 5 -14 12 1 8 -1 11 -6 8 -5 -3 -20 6 -32 19 -13 14 -20 25 -17
25 4 0 -2 9 -12 19 -27 27 -57 86 -39 75 7 -4 5 2 -6 14 -11 13 -16 30 -13 42
3 13 1 18 -6 13 -7 -4 -8 0 -4 11 4 10 7 23 7 29 0 6 9 1 20 -11 12 -12 23
-22 26 -22z m881 -177 c-8 -28 -25 -69 -37 -92 -27 -54 -99 -133 -113 -124 -5
3 -7 1 -3 -5 17 -28 -121 -87 -171 -72 -66 19 -66 20 -41 47 13 14 51 46 85
71 35 25 66 54 69 65 4 12 11 16 22 12 13 -5 14 -4 5 6 -10 10 -9 15 5 26 12
10 6 9 -16 -2 -18 -9 -32 -21 -31 -28 3 -24 -1 -37 -12 -37 -8 0 -9 4 0 13 6
8 8 17 4 20 -3 4 -12 -1 -20 -11 -8 -9 -11 -11 -8 -4 6 11 3 12 -14 3 -11 -7
-21 -16 -21 -22 0 -6 -4 -7 -10 -4 -5 3 -10 2 -10 -3 0 -11 -58 -37 -66 -29
-12 12 39 89 74 111 20 14 77 34 126 45 49 12 108 30 132 40 23 11 45 17 48
13 3 -3 6 1 6 8 0 7 3 11 6 8 3 -3 -1 -28 -9 -55z m-681 5 l19 -23 -25 20
c-14 11 -27 21 -29 22 -2 2 0 3 6 3 5 0 18 -10 29 -22z"/>
<path d="M852 1015 c0 -16 2 -22 5 -12 2 9 2 23 0 30 -3 6 -5 -1 -5 -18z"/>
<path d="M181 492 c-1 -19 3 -22 18 -17 16 5 18 2 14 -16 -4 -14 -2 -20 5 -16
15 10 8 42 -9 42 -8 0 -17 7 -21 15 -5 11 -7 8 -7 -8z"/>
<path d="M220 316 c0 -2 7 -7 16 -10 8 -3 12 -2 9 4 -6 10 -25 14 -25 6z"/>
<path d="M961 404 c0 -11 3 -14 6 -6 3 7 2 16 -1 19 -3 4 -6 -2 -5 -13z"/>
<path d="M921 307 c-13 -21 -12 -21 5 -5 10 10 16 20 13 22 -3 3 -11 -5 -18
-17z"/>
<path d="M864 228 l-19 -23 23 19 c21 18 27 26 19 26 -2 0 -12 -10 -23 -22z"/>
</g>
</svg>
