<svg xmlns="http://www.w3.org/2000/svg" width="25" height="25" viewBox="0 0 25 25"><g fill="#fff" fill-rule="evenodd"><path fill="#4597CB" d="M.001 12.268c0 6.624 5.588 12.014 12.458 12.014s12.46-5.39 12.46-12.014C24.92 5.641 19.332.252 12.46.252 5.59.252.001 5.642.001 12.268z"/><path fill-rule="nonzero" d="M20.277 8.06c-.46-.772-.961-.914-1.98-.968C17.279 7.027 14.72 7 12.502 7c-2.222 0-4.782.027-5.799.091-1.017.055-1.518.196-1.984.969C4.244 8.831 4 10.159 4 12.497c0 2.336.244 3.674.72 4.437.465.772.965.912 1.982.977 1.018.056 3.578.089 5.8.089 2.218 0 4.777-.033 5.796-.088 1.019-.065 1.52-.205 1.98-.977.48-.763.722-2.101.722-4.429 0-2.347-.242-3.675-.723-4.446zM11 15v-5l5 2.5-5 2.5z"/></g></svg>