<svg xmlns="http://www.w3.org/2000/svg" width="22" height="23" viewBox="0 0 22 23">
  <path fill="#FFFFFF" d="M21.6655044,20.9493558 L16.2421281,15.2560826 C17.6365734,13.5829442 18.4005983,11.4777938 18.4005983,9.28624092 C18.4005983,4.16588842 14.2732641,0 9.20029913,0 C4.12733419,0 0,4.16588842 0,9.28624092 C0,14.4065934 4.12733419,18.5724818 9.20029913,18.5724818 C11.1047611,18.5724818 12.9196201,17.9926974 14.4712705,16.892076 L19.9358482,22.6285504 C20.1642556,22.8679739 20.4714656,23 20.8006763,23 C21.1122864,23 21.407896,22.8800864 21.6323033,22.6620616 C22.1091188,22.1989608 22.1243193,21.431029 21.6655044,20.9493558 Z M9.20029913,2.42249763 C12.950021,2.42249763 16.0005202,5.50149212 16.0005202,9.28624092 C16.0005202,13.0709897 12.950021,16.1499842 9.20029913,16.1499842 C5.45057722,16.1499842 2.40007803,13.0709897 2.40007803,9.28624092 C2.40007803,5.50149212 5.45057722,2.42249763 9.20029913,2.42249763 Z"/>
</svg>
