<svg xmlns="http://www.w3.org/2000/svg" width="25" height="25" viewBox="0 0 25 25"><path fill="#4597CB" fill-rule="evenodd" d="M18.076 9.639c.006.123.009.25.009.375 0 3.8-2.894 8.184-8.186 8.184a8.141 8.141 0 0 1-4.411-1.292 5.772 5.772 0 0 0 4.26-1.191 2.885 2.885 0 0 1-2.69-1.998 2.878 2.878 0 0 0 1.3-.05 2.875 2.875 0 0 1-2.307-2.821v-.035c.389.215.833.345 1.303.36a2.877 2.877 0 0 1-1.278-2.396c0-.527.14-1.02.388-1.446a8.172 8.172 0 0 0 5.93 3.007 2.877 2.877 0 0 1 4.902-2.625 5.744 5.744 0 0 0 1.828-.699 2.887 2.887 0 0 1-1.266 1.592 5.783 5.783 0 0 0 1.652-.451 5.786 5.786 0 0 1-1.434 1.486M12.5 0C5.608 0 0 5.608 0 12.5S5.608 25 12.5 25 25 19.392 25 12.5 19.392 0 12.5 0"/></svg>