<svg xmlns="http://www.w3.org/2000/svg" width="25" height="25" viewBox="0 0 25 25">
  <path fill="#4597CB" fill-rule="evenodd" d="M123.076363,9.63899293 C123.081565,9.76210293 123.085033,9.88868082 123.085033,10.0135248 C123.085033,13.8143293 120.191081,18.1977389 114.899084,18.1977389 C113.274379,18.1977389 111.760646,17.7226384 110.487932,16.9059509 C110.713344,16.93196 110.942225,16.9458316 111.174573,16.9458316 C112.523582,16.9458316 113.763351,16.4863365 114.748231,15.7147316 C113.489388,15.6904564 112.426481,14.8598974 112.058885,13.7172285 C112.235747,13.7501734 112.416077,13.7692468 112.599875,13.7692468 C112.863435,13.7692468 113.118324,13.732834 113.359342,13.6669441 C112.043279,13.4051186 111.051463,12.2416424 111.051463,10.8458177 C111.051463,10.8336801 111.051463,10.8232765 111.051463,10.8111389 C111.439867,11.0261479 111.883756,11.1561936 112.353655,11.1700652 C111.583784,10.6550839 111.075739,9.77424053 111.075739,8.77548897 C111.075739,8.24837009 111.216188,7.75419614 111.464142,7.32937994 C112.882508,9.0702594 115.003121,10.2146622 117.394229,10.3360383 C117.343945,10.1244972 117.31967,9.90602025 117.31967,9.67887363 C117.31967,8.09058122 118.60799,6.80226106 120.196282,6.80226106 C121.023374,6.80226106 121.770703,7.15078374 122.296088,7.71084755 C122.953253,7.58080178 123.567069,7.34325149 124.123665,7.01206825 C123.906922,7.6848384 123.452629,8.24837009 122.857886,8.60382855 C123.440491,8.5344708 123.995353,8.38014981 124.510334,8.15300319 C124.125399,8.72867249 123.638161,9.23671799 123.076363,9.63899293 M117.5,0 C110.607574,0 105,5.60757387 105,12.5 C105,19.3924261 110.607574,25 117.5,25 C124.392426,25 130,19.3924261 130,12.5 C130,5.60757387 124.392426,0 117.5,0" transform="translate(-105)"/>
</svg>
