<svg xmlns="http://www.w3.org/2000/svg" width="25" height="25" viewBox="0 0 25 25"><path fill="#4597CB" d="M12.5 0C5.597 0 0 5.597 0 12.5S5.597 25 12.5 25 25 19.403 25 12.5C25 5.595 19.403 0 12.5 0zM9.375 18.555H6.25V7.617h3.125v10.938zM7.909 6.947A1.465 1.465 0 1 1 9.375 5.48c0 .81-.656 1.466-1.466 1.466zm12.403 11.608h-3.125v-6.763c0-.792-.226-1.347-1.2-1.347-1.614 0-1.925 1.347-1.925 1.347v6.763h-3.125V7.617h3.125v1.045a5.227 5.227 0 0 1 3.125-1.043c1.013 0 3.125.606 3.125 4.268v6.668z"/></svg>