<svg xmlns="http://www.w3.org/2000/svg" width="25" height="25" viewBox="0 0 25 25">
  <path fill="#4597CB" fill-rule="evenodd" d="M12.4594815,0.2525 C19.3315802,0.2525 24.9194815,5.6425 24.9194815,12.2675 C24.9194815,18.8925 19.3298519,24.2825 12.4594815,24.2825 C5.58911111,24.2825 0.00120987654,18.8925 0.00120987654,12.2675 C0.00120987654,5.6425 5.58911111,0.2525 12.4594815,0.2525 Z M18.6672646,5.06012371 C18.5949291,4.99684522 18.4919883,4.98216422 18.4047387,5.02252485 L2.6405562,12.32775 C2.55568709,12.3670931 2.50103469,12.4515452 2.50001451,12.544864 C2.49899433,12.6381828 2.55184928,12.7237977 2.63589253,12.7649336 L7.0971319,14.9485743 C7.17894048,14.9886443 7.27648895,14.9795837 7.34955314,14.9251235 L11.687108,11.6917188 L8.28194746,15.1851177 C8.23336754,15.2349749 8.20859179,15.303244 8.21393558,15.3725305 L8.55297481,19.7762965 C8.56050469,19.8738791 8.62608758,19.9573137 8.71931244,19.987887 C8.74423393,19.9960269 8.76983555,20 8.79514568,20 C8.86456638,20 8.93209247,19.9702988 8.97906924,19.9160325 L11.3469515,17.179359 L14.2741343,18.574296 C14.3376768,18.6045785 14.4112268,18.6058383 14.4757895,18.577833 C14.5403522,18.5497792 14.5895151,18.4952221 14.6105988,18.4282612 L18.7388228,5.31483657 C18.7676793,5.22326204 18.7395515,5.12340219 18.6672646,5.06012371 Z"/>
</svg>
