<svg xmlns="http://www.w3.org/2000/svg" width="25" height="25" viewBox="0 0 25 25">
  <path fill="#4597CB" d="M82.5,0 C75.5968745,0 70,5.59687454 70,12.5 C70,19.4031255 75.5968745,25 82.5,25 C89.4031255,25 95,19.4031255 95,12.5 C95,5.59533257 89.4031255,0 82.5,0 Z M79.375,18.5546843 L76.25,18.5546843 L76.25,7.61715859 L79.375,7.61715859 L79.375,18.5546843 Z M77.9093612,6.9468659 C77.0999831,6.9468659 76.4453157,6.29060511 76.4453157,5.48122708 C76.4453157,4.67184904 77.1015765,4.01558825 77.9093612,4.01558825 C78.7187392,4.01713022 79.375,4.67339101 79.375,5.48122708 C79.375,6.29060511 78.7187392,6.9468659 77.9093612,6.9468659 Z M90.3124743,18.5546843 L87.1874743,18.5546843 L87.1874743,11.7921861 C87.1874743,10.9999753 86.9609081,10.4453301 85.9874648,10.4453301 C84.3733861,10.4453301 84.0624743,11.7921861 84.0624743,11.7921861 L84.0624743,18.5546843 L80.9374743,18.5546843 L80.9374743,7.61715859 L84.0624743,7.61715859 L84.0624743,8.66245744 C84.5093361,8.32029515 85.6249486,7.61870055 87.1874743,7.61870055 C88.1999807,7.61870055 90.3124743,8.22495025 90.3124743,11.8874282 L90.3124743,18.5546843 Z" transform="translate(-70)"/>
</svg>
