<svg xmlns="http://www.w3.org/2000/svg" width="25" height="25" viewBox="0 0 25 25"><path fill="#4597CB" fill-rule="evenodd" d="M12.46.253c6.872 0 12.46 5.39 12.46 12.014 0 6.625-5.59 12.015-12.46 12.015C5.59 24.282 0 18.892 0 12.268.001 5.641 5.59.252 12.46.252zm6.207 4.807a.244.244 0 0 0-.262-.037L2.64 12.328a.242.242 0 0 0-.005.437l4.461 2.184c.082.04.18.03.253-.024l4.337-3.233-3.405 3.493a.242.242 0 0 0-.068.188l.339 4.403a.242.242 0 0 0 .426.14l2.368-2.737 2.927 1.395a.244.244 0 0 0 .337-.146l4.128-13.113a.242.242 0 0 0-.072-.255z"/></svg>