<svg xmlns="http://www.w3.org/2000/svg" width="25" height="25" viewBox="0 0 25 25">
  <path fill="#4597CB" fill-rule="evenodd" d="M50.5584938,12.6908333 L48.5310864,12.6908333 L48.5310864,19.6575 L45.5271358,19.6575 L45.5271358,12.6908333 L44.0994815,12.6908333 L44.0994815,10.2275 L45.5271358,10.2275 L45.5271358,8.63416667 C45.5271358,7.49416667 46.0905926,5.7125 48.5587407,5.7125 L50.7849136,5.71916667 L50.7849136,8.11083333 L49.1688642,8.11083333 C48.9061481,8.11083333 48.5328148,8.2375 48.5328148,8.78083333 L48.5328148,10.2275 L50.8212099,10.2275 L50.5584938,12.6908333 Z M47.4594815,0.2525 C40.5891111,0.2525 35.0012099,5.6425 35.0012099,12.2675 C35.0012099,18.8925 40.5891111,24.2825 47.4594815,24.2825 C54.3298519,24.2825 59.9194815,18.8925 59.9194815,12.2675 C59.9194815,5.6425 54.3315802,0.2525 47.4594815,0.2525 Z" transform="translate(-35)"/>
</svg>
