<svg xmlns="http://www.w3.org/2000/svg" width="26" height="26" viewBox="0 0 26 26"><g fill="#4597CB"><path d="M24.254 1.8a5.866 5.866 0 0 0-8.455 0L11.57 6.153c-.36.37-.36.97 0 1.34a.9.9 0 0 0 1.3 0l4.23-4.355a4.052 4.052 0 0 1 2.927-1.242c1.11 0 2.15.442 2.927 1.243a4.296 4.296 0 0 1 1.207 3.014 4.296 4.296 0 0 1-1.207 3.013l-5.528 5.694a4.062 4.062 0 0 1-5.855 0 .901.901 0 0 0-1.3 0c-.36.37-.36.97 0 1.339a5.874 5.874 0 0 0 4.227 1.8c1.532 0 3.063-.6 4.228-1.8l5.53-5.693A6.206 6.206 0 0 0 26 6.154c0-1.65-.62-3.195-1.746-4.354z"/><path d="M12.737 19.05l-3.651 3.753a4.138 4.138 0 0 1-2.988 1.266 4.139 4.139 0 0 1-2.988-1.266c-1.648-1.693-1.648-4.45 0-6.143l5.312-5.46a4.14 4.14 0 0 1 2.988-1.266 4.14 4.14 0 0 1 2.987 1.265.92.92 0 0 0 1.328 0 .984.984 0 0 0 0-1.365 5.994 5.994 0 0 0-8.632 0l-5.312 5.462A6.32 6.32 0 0 0 0 19.732c0 1.68.633 3.256 1.782 4.436A5.977 5.977 0 0 0 6.097 26c1.634 0 3.167-.65 4.316-1.832l3.652-3.754a.984.984 0 0 0 0-1.365.92.92 0 0 0-1.328 0z"/></g></svg>