<svg xmlns="http://www.w3.org/2000/svg" width="25" height="25" viewBox="0 0 25 25">
  <g fill="#fff" fill-rule="evenodd">
    <path fill="#4597CB" d="M0.00120987654,12.2675 C0.00120987654,18.8925 5.58911111,24.2825 12.4594815,24.2825 C19.3298519,24.2825 24.9194815,18.8925 24.9194815,12.2675 C24.9194815,5.6425 19.3315802,0.2525 12.4594815,0.2525 C5.58911111,0.2525 0.00120987654,5.6425 0.00120987654,12.2675 Z"/>
    <path fill="#e4e5e5" fill-rule="nonzero" d="M20.2775,8.06 C19.816375,7.288 19.3159375,7.146 18.297,7.092 C17.279125,7.027 14.7195625,7 12.502125,7 C10.2804375,7 7.7198125,7.027 6.703,7.091 C5.6861875,7.146 5.1846875,7.287 4.7193125,8.06 C4.244375,8.831 4,10.159 4,12.497 C4,14.833 4.244375,16.171 4.7193125,16.934 C5.1846875,17.706 5.685125,17.846 6.7019375,17.911 C7.7198125,17.967 10.2804375,18 12.502125,18 C14.7195625,18 17.279125,17.967 18.2980625,17.912 C19.317,17.847 19.8174375,17.707 20.2785625,16.935 C20.75775,16.172 21,14.834 21,12.506 C21,10.159 20.75775,8.831 20.2775,8.06 Z M11,15 L11,10 L16,12.5 L11,15 Z"/>
  </g>
</svg>
