<svg class="svg-unity-logo" xmlns="http://www.w3.org/2000/svg" viewBox="0 0 281 46"><title>Powered By Unity</title><g fill="#FFF" fill-rule="evenodd"><path d="M7.18 13.792a180.954 180.954 0 0 1-2.987-3.287c-.794-.899-1.301-1.46-1.521-1.68-.573-.576-1.043-.85-1.413-.823-.368.027-.652.242-.851.648-.198.406-.323.937-.374 1.593-.05.657-.045 1.317.013 1.98a9.44 9.44 0 0 0 .337 1.842c.165.566.358.958.579 1.18.78.783 1.683 1.706 2.694 2.755 1.17-1.206 2.806-2.35 4.343-3.284-.339-.384-.688-.78-.82-.924m27.626 5.158c.794 1.368 1.378 2.68 1.757 3.937.378 1.254.506 2.415.386 3.482-.12 1.065-.575 1.995-1.365 2.791-.971.98-2.144 1.484-3.514 1.514-.01 0-.018.003-.029.004a9.25 9.25 0 0 1-1.058-.046 10.871 10.871 0 0 1-1.636-.315 13.729 13.729 0 0 1-1.77-.583c-1.059-.432-2.15-.995-3.267-1.663a32.411 32.411 0 0 1-1.706-1.087 68.673 68.673 0 0 1-5.109-3.874c-.369-.307-.72-.623-1.081-.933-.476.283-.943.573-1.396.872A20.152 20.152 0 0 0 12 25.459a127.11 127.11 0 0 0 2.194 1.886 65.474 65.474 0 0 0 4.985 3.8 39.695 39.695 0 0 0 3.76 2.268l.099.052c.417.222.832.466 1.25.668.187.09.37.165.555.25a19.92 19.92 0 0 0 3.17 1.147c.43.113.857.209 1.28.284 1.617.286 3.166.242 4.65-.131 1.483-.374 2.852-1.196 4.11-2.464.994-1.003 1.602-2.154 1.824-3.453.22-1.299.144-2.683-.228-4.151-.373-1.467-.998-2.997-1.877-4.59a44.788 44.788 0 0 0-3.066-4.784c-.303-.415-.632-.827-.948-1.241a47.619 47.619 0 0 1-.106 2.092c.407.623.797 1.243 1.154 1.858M22.25 37.217a183.43 183.43 0 0 1-1.382 4.392c-.39 1.18-.627 1.928-.71 2.24-.214.815-.21 1.382.015 1.705.225.321.575.47 1.053.443.478-.027 1.03-.185 1.658-.473a12.63 12.63 0 0 0 1.8-1.022 9.618 9.618 0 0 0 1.499-1.247c.427-.439.68-.814.764-1.128.292-1.108.645-2.4 1.054-3.855-1.735-.448-3.667-1.351-5.353-2.272-.167.504-.34 1.023-.398 1.217"/><path d="M13.002 10.388c.82-1.395 1.698-2.58 2.63-3.556.93-.974 1.904-1.682 2.92-2.124 1.014-.44 2.078-.52 3.193-.238 1.371.348 2.418 1.115 3.142 2.298.006.009.013.014.018.023.182.3.348.617.498.95.222.49.397 1.03.551 1.592.158.582.292 1.189.378 1.847.152 1.15.203 2.391.173 3.712a32.196 32.196 0 0 1-.105 2.05 68.904 68.904 0 0 1-.867 6.456c-.087.48-.191.95-.285 1.424.495.27.992.532 1.49.775A20.663 20.663 0 0 0 30.431 27c.198-.947.39-1.906.572-2.886.397-2.137.684-4.24.865-6.311.133-1.527.152-3.002.116-4.453l-.003-.113c-.013-.478-.007-.966-.038-1.437-.014-.209-.04-.407-.06-.612a19.68 19.68 0 0 0-.585-3.363c-.118-.434-.25-.856-.397-1.264-.567-1.562-1.394-2.894-2.483-4.001C27.328 1.455 25.896.679 24.12.229c-1.403-.356-2.742-.296-4.019.175-1.274.474-2.474 1.25-3.6 2.329-1.122 1.08-2.173 2.41-3.152 3.997a45.925 45.925 0 0 0-2.722 5.136c-.217.478-.42.977-.628 1.466a50.019 50.019 0 0 1 1.926-.981 42.29 42.29 0 0 1 1.076-1.963m22.832 3.326c1.735-.447 3.196-.808 4.386-1.08 1.188-.275 1.935-.457 2.24-.548.793-.237 1.272-.537 1.44-.9.166-.364.126-.748-.124-1.152-.25-.403-.646-.804-1.189-1.201a11.711 11.711 0 0 0-1.722-1.04 8.847 8.847 0 0 0-1.77-.66c-.576-.145-1.015-.17-1.32-.08-1.08.322-2.346.687-3.775 1.087.443 1.749.593 3.908.611 5.86.507-.117 1.03-.236 1.223-.286"/><path d="M16.62 34.446c-1.605-.008-3.058-.171-4.356-.486-1.297-.316-2.386-.802-3.267-1.459-.88-.656-1.473-1.536-1.78-2.643-.377-1.362-.233-2.654.428-3.876.005-.01.006-.019.011-.028.169-.308.36-.611.572-.909.313-.438.69-.862 1.098-1.278.422-.43.878-.851 1.402-1.257.914-.71 1.958-1.38 3.108-2.018.58-.321 1.177-.638 1.816-.942a68.461 68.461 0 0 1 5.982-2.498c.456-.166.91-.312 1.366-.47a36.95 36.95 0 0 0-.07-1.68A20.799 20.799 0 0 0 22.319 11c-.913.305-1.833.621-2.765.958a65.153 65.153 0 0 0-5.856 2.428 39.508 39.508 0 0 0-3.984 2.2c-.406.252-.828.492-1.217.756-.174.118-.331.24-.498.36a19.843 19.843 0 0 0-2.605 2.199c-.314.32-.613.647-.891.98-1.064 1.277-1.803 2.663-2.218 4.163-.413 1.5-.375 3.13.113 4.892.386 1.393 1.097 2.523 2.132 3.39 1.036.864 2.296 1.512 3.779 1.943 1.482.429 3.146.668 4.992.716a45.09 45.09 0 0 0 5.761-.229c.519-.052 1.048-.129 1.571-.194-.722-.45-1.336-.86-1.793-1.174-.754.037-1.497.06-2.22.058M51 37.65l3.519-19.873h2.175l-.575 2.698c1.151-1.873 2.943-2.984 4.99-2.984 3.327 0 5.63 2.571 5.63 6.318 0 4.317-3.007 7.365-6.622 7.365-2.527 0-4.478-1.588-5.118-3.715l-1.824 10.19H51zm8.638-8.35c2.91 0 4.862-2.349 4.862-5.491 0-2.604-1.535-4.413-3.967-4.413-2.847 0-4.99 2.254-4.99 5.365 0 2.603 1.567 4.54 4.095 4.54zm16.603 1.874c-3.711 0-6.622-2.89-6.622-6.508 0-4.096 3.167-7.175 7.166-7.175 3.71 0 6.59 2.889 6.59 6.54 0 4.095-3.135 7.143-7.134 7.143zm.032-1.873c2.943 0 4.863-2.254 4.863-5.302 0-2.635-1.728-4.603-4.383-4.603-2.88 0-4.895 2.254-4.895 5.301 0 2.667 1.792 4.604 4.415 4.604zm19.898-7.873c-.002.005-.385 1.081-.863 1.873l-4.99 7.904h-.353l-3.199-13.428h2.271l1.632 7.365c.191.823.32 1.994.32 2 .002-.006.481-1.145.992-2l4.574-7.556h.288l2.176 7.46c.223.824.383 1.994.384 2 .002-.006.417-1.145.895-2l4.031-7.27h2.272l-7.486 13.43h-.352l-2.208-7.81c-.255-.855-.383-1.963-.384-1.968zm3.232 5.619zm-8.414.095zm18.939-1.62c.352 2.287 2.047 3.842 4.542 3.842 1.92 0 3.2-.698 4.127-1.65l1.376 1.333c-1.28 1.301-3.103 2.127-5.503 2.127-4.063 0-6.782-2.794-6.782-6.54 0-4.064 3.007-7.143 6.878-7.143 4.127 0 6.175 2.92 6.239 6.889l-10.877 1.143zm-.032-1.65l8.605-.889c-.192-1.873-1.311-3.714-3.967-3.714-2.591 0-4.35 1.873-4.638 4.603zM123.3 30.92l2.335-13.143h2.176l-.64 2.825c.992-1.968 2.367-3.08 4.127-3.08.767 0 1.215.16 1.727.414l-.864 1.936c-.383-.222-.8-.317-1.311-.317-2.176 0-3.647 1.619-4.16 4.507l-1.215 6.858H123.3zm13.148-5.397c.352 2.286 2.048 3.841 4.543 3.841 1.92 0 3.2-.698 4.127-1.65l1.375 1.333c-1.28 1.301-3.103 2.127-5.502 2.127-4.063 0-6.782-2.794-6.782-6.54 0-4.064 3.007-7.143 6.878-7.143 4.127 0 6.174 2.92 6.238 6.889l-10.877 1.143zm-.032-1.651l8.606-.889c-.192-1.873-1.312-3.714-3.967-3.714-2.591 0-4.35 1.873-4.639 4.603zm19.323 7.302c-3.36 0-5.599-2.635-5.599-6.318 0-4.38 3.008-7.365 6.687-7.365 2.43 0 4.382 1.556 5.022 3.65L164.216 8h2.176l-3.583 20.159c-.128.698 0 1.016.608 1.016h1.215l-.288 1.746h-1.471c-1.952 0-2.367-.921-2.208-2.318l.096-.413c-1.087 1.873-2.975 2.985-5.022 2.985zm.576-1.873c2.847 0 4.99-2.223 4.99-5.365.032-2.572-1.567-4.54-4.095-4.54-2.943 0-4.83 2.317-4.83 5.492 0 2.603 1.503 4.413 3.935 4.413zm26.392 1.873c-2.495 0-4.542-1.524-5.214-3.937l-.512 3.683h-2.175L178.836 8h2.176l-2.176 12.286c1.12-1.746 2.848-2.794 4.831-2.794 3.36 0 5.63 2.571 5.63 6.318 0 4.317-2.975 7.365-6.59 7.365zm-.512-1.873c2.944 0 4.863-2.35 4.863-5.492 0-2.604-1.503-4.413-3.935-4.413-2.847 0-4.99 2.254-4.99 5.365 0 2.603 1.567 4.54 4.062 4.54zm46.907-4.083l-.535 3.025c-.128.661 0 1.007.607 1.007h1.311l-.32 1.733h-1.534c-1.33 0-2.035-.424-2.238-1.322-1.342.995-3.067 1.432-5.096 1.432-4.509 0-7.962-2.898-7.035-8.189l2.398-13.48h2.303l-2.398 13.512c-.736 4.157 1.407 6.173 4.828 6.173 3.07 0 5.053-1.418 5.692-5.07l2.59-14.614h2.303l-2.686 14.897c-.055.31-.118.609-.19.896zM196.592 38c-2.656 0-4.671-1.206-5.63-3.143l1.727-1.111c.831 1.46 1.919 2.35 3.902 2.35 2.336 0 3.903-1.43 4.415-4.223l.576-3.143c-.96 1.397-2.4 2.476-4.51 2.476-2.912 0-4.831-2.222-4.191-5.84l1.343-7.588h2.176l-1.312 7.397c-.448 2.508.48 4.095 2.751 4.095 2.4 0 3.903-1.429 4.383-4.095l1.344-7.397h2.175l-2.56 14.38c-.703 3.969-3.102 5.842-6.59 5.842zm36.537-7.158l2.334-13.039h2.175l-.544 2.614c.96-1.732 2.559-2.897 4.701-2.897 2.91 0 4.829 2.204 4.19 5.795l-.864 4.787c-.128.661 0 1.008.64 1.008h1.215l-.32 1.732h-1.471c-1.919 0-2.558-.913-2.207-2.898l.8-4.44c.447-2.488-.48-4.063-2.75-4.063-2.399 0-3.934 1.417-4.413 4.063l-1.311 7.338h-2.175zm20.594-16.85c-.8 0-1.535-.598-1.535-1.511 0-.913.703-1.543 1.535-1.543.8 0 1.535.63 1.535 1.543 0 .913-.704 1.512-1.535 1.512zm-1.489 16.992c-1.95 0-2.558-.914-2.206-2.898l1.79-10.14h2.175l-1.823 10.298c-.127.661 0 1.007.608 1.007h1.311l-.32 1.733h-1.535zm7.149-11.354H257.4l.32-1.827h1.983l1.247-6.802h2.142l-1.215 6.802h3.582l-.32 1.827h-3.582l-1.31 7.275c-.288 1.638.191 2.33 1.246 2.33.8 0 1.28-.314 1.727-.692l1.024 1.449c-.672.598-1.535 1.102-3.006 1.102-2.11 0-3.71-1.197-3.134-4.283l1.279-7.181zm12.471 18.235c-2.654 0-4.668-1.197-5.628-3.118l1.727-1.102c.831 1.449 1.919 2.33 3.901 2.33 2.335 0 3.902-1.417 4.413-4.188l.576-3.118c-.96 1.386-2.398 2.456-4.509 2.456-2.91 0-4.829-2.204-4.19-5.795l1.344-7.527h2.174l-1.31 7.338c-.448 2.489.479 4.063 2.75 4.063 2.398 0 3.9-1.417 4.38-4.063l1.344-7.338H281l-2.558 14.267c-.704 3.937-3.102 5.795-6.588 5.795z"/></g></svg>