<svg xmlns="http://www.w3.org/2000/svg" width="26" height="26" viewBox="0 0 26 26">
  <g fill="#4597CB">
    <path d="M24.2544576,1.79977506 C21.9233882,-0.60039859 18.1301107,-0.599451402 15.7985813,1.79977506 L11.5706432,6.15304976 C11.2114156,6.52292656 11.2114156,7.12249638 11.5706432,7.49237318 C11.9298707,7.86224998 12.5121781,7.86224998 12.8714057,7.49237318 L17.0993438,3.13909848 C17.8771336,2.33872486 18.9166397,1.89733539 20.0260595,1.89733539 C21.1359393,1.89733539 22.1754454,2.33872486 22.9532352,3.13957207 C23.7310249,3.94041928 24.1597062,5.01074138 24.1597062,6.15352335 C24.1597062,7.29583173 23.7310249,8.36615384 22.9532352,9.16700104 L17.4249944,14.8605463 C15.8105402,16.5219136 13.1846374,16.5219136 11.5701832,14.8605463 C11.2109556,14.4906695 10.6286482,14.4906695 10.2694207,14.8605463 C9.91019311,15.2304231 9.91019311,15.8304666 10.2694207,16.1998698 C11.4349554,17.3999566 12.9661571,18 14.4973588,18 C16.0285605,18 17.5597623,17.3999566 18.725297,16.1998698 L24.2544576,10.5067981 C25.379976,9.34838749 26,7.80210356 26,6.15352335 C26,4.50446956 25.379976,2.95865922 24.2544576,1.79977506 Z"/>
    <path d="M12.7374607,19.0492678 L9.08557637,22.8033679 C8.29162723,23.6195395 7.23052432,24.0693751 6.09758567,24.0693751 C4.96511653,24.0693751 3.9035441,23.6195395 3.10959497,22.8033679 C1.46206836,21.1097272 1.46206836,18.3537602 3.10959497,16.6601195 L8.42168277,11.1993471 C9.2156319,10.3836581 10.2767348,9.93382247 11.4096735,9.93382247 C12.5421426,9.93382247 13.6032455,10.3836581 14.3971947,11.1993471 C14.7638855,11.5763016 15.358291,11.5763016 15.7249818,11.1993471 C16.0916727,10.8223926 16.0916727,10.2113498 15.7249818,9.83439529 C13.3459515,7.38877624 9.47386491,7.38829358 7.09342606,9.83439529 L1.78133826,15.2956504 C0.632905635,16.4762275 0,18.0521001 0,19.7322264 C0,21.41187 0.632905635,22.9877425 1.78180778,24.1683197 C2.93024041,25.3493794 4.46320546,26 6.09711615,26 C7.73149636,26 9.26446142,25.3493794 10.412894,24.1683197 L14.0647783,20.4142196 C14.4314692,20.0372651 14.4314692,19.4262223 14.0647783,19.0492678 C13.6980875,18.6723133 13.1041515,18.6723133 12.7374607,19.0492678 Z"/>
  </g>
</svg>
