<svg xmlns="http://www.w3.org/2000/svg" viewBox="0 0 1000 1000"><defs><style>.cls-1{fill:#82bb41;}.cls-2{fill:#80bdda;}.cls-3{fill:#005f9f;}.cls-4{fill:#f89c25;}</style></defs><g id="Layer_2" data-name="Layer 2"><g id="Layer_1-2" data-name="Layer 1"><path class="cls-1" d="M853.56,853.56A498.49,498.49,0,0,1,500.91,1000V951A451,451,0,0,0,951,500.9h49A498.44,498.44,0,0,1,853.56,853.56Z"/><path class="cls-2" d="M499.09,1000A500,500,0,0,1,0,500.91H49A451,451,0,0,0,499.09,951Z"/><path class="cls-3" d="M181.1,181.1A449.57,449.57,0,0,0,49,499.09H0A500,500,0,0,1,499.09,0V49A449.57,449.57,0,0,0,181.1,181.1Z"/><path class="cls-4" d="M1000,499.08H951A451,451,0,0,0,500.91,49V0A500,500,0,0,1,1000,499.08Z"/></g></g></svg>